<svg xmlns="http://www.w3.org/2000/svg" width="512" height="512"><defs><path id="A" d="M552 633c0 44-43 72-90 72-62 0-105-40-128-119-5-18-16-69-32-153h-65c-22 0-33-1-33-22 0-11 10-16 31-16h60L222 8c-11-57-21-99-30-127-12-37-29-56-51-56-15 0-27 4-38 11 32 5 48 24 48 56 0 26-13 39-40 39-34 0-58-30-58-64 0-44 41-72 88-72 25 0 48 10 67 31 32 33 57 80 75 143 11 39 21 77 28 115l58 311h82c23 0 33 1 33 24 0 9-10 14-30 14h-77c6 41 34 192 43 211 10 21 24 31 42 31 15 0 28-4 39-11-31-7-47-25-47-56 0-26 13-39 40-39 34 0 58 30 58 64z"/><path id="B" d="M318-248c9 0 14 5 14 14 0 3-2 7-5 11-52 40-94 106-125 197-27 79-41 157-41 234v84c0 77 14 155 41 234 31 91 73 157 125 197 3 3 5 7 5 11 0 9-5 14-14 14-1 0-4-1-7-3-60-46-110-114-151-205-39-87-59-169-59-248v-84c0-79 20-161 59-248 41-91 91-159 151-205 3-2 6-3 7-3z"/><path id="C" d="M527 373c0 46-45 69-95 69-43 0-77-23-103-69-21 46-56 69-107 69-49 0-89-23-121-68-27-39-41-68-41-87 0-9 5-14 15-14 9 0 15 5 17 14 19 58 61 126 128 126 33 0 49-21 49-62 0-21-18-99-53-233-17-67-47-100-90-100-14 0-27 3-38 8 26 10 39 28 39 54s-13 39-40 39c-33 0-58-28-58-61 0-46 47-69 96-69 42 0 76 23 103 69 19-46 55-69 107-69 48 0 88 23 120 68 27 39 41 68 41 87 0 9-5 14-15 14-9 0-14-5-17-14-17-57-62-126-127-126-33 0-50 20-50 61 0 13 5 41 16 86l34 135c19 75 50 113 94 113 14 0 27-3 38-8-27-9-40-27-40-54 0-26 14-39 41-39 32 0 57 29 57 61z"/><path id="D" d="M78-245c60 46 110 114 151 205 39 87 59 169 59 248v84c0 79-20 161-59 248-41 91-91 159-151 205-3 2-6 3-7 3-9 0-14-5-14-14 0-4 2-8 5-11 52-40 94-106 125-197 27-79 41-157 41-234v-84c0-77-14-155-41-234-31-91-73-157-125-197-3-4-5-8-5-11 0-9 5-14 14-14 1 0 4 1 7 3z"/></defs><path d="M0 0h512v512H0z" fill="#1c5700"/><g transform="matrix(.18554 0 0 -.18554 84.004207 302.38506)" fill="#02fe12" stroke="#02fe12" stroke-width="30.59"><use href="#A"/><use href="#B" x="552"/><use href="#C" x="941"/><use href="#D" x="1513"/></g></svg>
